<svg width="173" height="51" viewBox="0 0 173 51" fill="none" xmlns="http://www.w3.org/2000/svg">
<path d="M144.657 27.1712C144.657 26.0609 145.053 25.1101 145.844 24.3189C146.635 23.5276 147.592 23.132 148.716 23.132H154.765C155.995 23.132 157.06 23.4218 157.957 24.0013C158.451 24.3205 159.114 24.3159 159.607 23.9954C160.493 23.4198 161.559 23.132 162.805 23.132H165.791C167.106 23.132 168.305 23.4575 169.39 24.1083C170.475 24.7464 171.336 25.6078 171.974 26.6926C172.625 27.7646 172.951 28.9579 172.951 30.2724V41.8893C172.951 42.4829 172.469 42.9642 171.876 42.9642H170.005C169.412 42.9642 168.931 42.4829 168.931 41.8893V30.3298C168.931 29.4492 168.624 28.7026 168.012 28.0901C167.399 27.4647 166.659 27.152 165.791 27.152H162.805C162.243 27.152 161.765 27.3307 161.369 27.6881C160.973 28.0326 160.776 28.4538 160.776 28.9515V41.8893C160.776 42.4829 160.294 42.9642 159.701 42.9642H157.811C157.218 42.9642 156.736 42.4829 156.736 41.8893V28.9515C156.736 28.4538 156.545 28.0326 156.162 27.6881C155.779 27.3307 155.313 27.152 154.765 27.152H149.771C149.178 27.152 148.696 27.6333 148.696 28.2269V41.8893C148.696 42.4829 148.215 42.9642 147.622 42.9642H145.732C145.138 42.9642 144.657 42.4829 144.657 41.8893V27.1712Z" fill="#083E44"/>
<path d="M124.742 24.2068C124.742 23.6132 125.223 23.132 125.817 23.132H127.706C128.3 23.132 128.781 23.6132 128.781 24.2068V35.7472C128.781 36.6406 129.087 37.3999 129.7 38.0253C130.312 38.6506 131.046 38.9633 131.901 38.9633H137.852C138.445 38.9633 138.927 38.4821 138.927 37.8884V24.2068C138.927 23.6132 139.408 23.132 140.001 23.132H141.891C142.485 23.132 142.966 23.6132 142.966 24.2068V38.9441C142.966 40.0544 142.57 41.0052 141.779 41.7964C140.988 42.5749 140.024 42.9642 138.888 42.9642H131.901C130.587 42.9642 129.387 42.6451 128.302 42.007C127.218 41.3561 126.35 40.4883 125.699 39.4036C125.061 38.3188 124.742 37.1192 124.742 35.8047V24.2068Z" fill="#083E44"/>
<path d="M107.43 23.132C107.878 23.132 108.279 23.4101 108.436 23.8298L112.329 34.2198C112.676 35.1465 113.985 35.1512 114.339 34.2271L118.324 23.8224C118.483 23.4066 118.883 23.132 119.328 23.132H121.482C122.237 23.132 122.757 23.8895 122.485 24.5936L112.786 49.7419C112.626 50.1565 112.227 50.4299 111.783 50.4299H109.656C108.904 50.4299 108.384 49.6769 108.651 48.9735L111.035 42.6951C111.129 42.4491 111.129 42.1775 111.035 41.9315L104.441 24.5889C104.173 23.8854 104.693 23.132 105.445 23.132H107.43Z" fill="#083E44"/>
<path d="M92.0635 28.6835C92.0635 27.6625 92.3187 26.7309 92.8292 25.8886C93.3524 25.0463 94.0416 24.3763 94.8966 23.8786C95.7645 23.3809 96.7216 23.132 97.7681 23.132H101.115C101.709 23.132 102.19 23.6132 102.19 24.2068V26.0772C102.19 26.6708 101.709 27.152 101.115 27.152H97.7681C97.3087 27.152 96.913 27.3116 96.5812 27.6306C96.2622 27.9369 96.1026 28.3134 96.1026 28.7601V41.8893C96.1026 42.4829 95.6214 42.9642 95.0278 42.9642H93.1383C92.5447 42.9642 92.0635 42.4829 92.0635 41.8893V28.6835Z" fill="#083E44"/>
<path d="M77.6382 24.2068C77.6382 23.6131 78.1194 23.1319 78.713 23.1319H79.1477C79.7413 23.1319 80.2225 22.6507 80.2225 22.0571V16.8176C80.2225 16.224 80.7037 15.7427 81.2973 15.7427H83.1868C83.7804 15.7427 84.2617 16.224 84.2617 16.8176V22.0571C84.2617 22.6507 84.7429 23.1319 85.3365 23.1319H89.2934C89.8871 23.1319 90.3683 23.6131 90.3683 24.2068V26.0963C90.3683 26.6899 89.8871 27.1711 89.2934 27.1711H85.3365C84.7429 27.1711 84.2617 27.6523 84.2617 28.2459V37.336C84.2617 37.7699 84.4276 38.1464 84.7594 38.4655C85.1039 38.7718 85.5123 38.9249 85.9845 38.9249H89.2934C89.8871 38.9249 90.3683 39.4061 90.3683 39.9997V41.8892C90.3683 42.4829 89.8871 42.9641 89.2934 42.9641H85.9271C84.8806 42.9641 83.9235 42.7152 83.0556 42.2175C82.2006 41.707 81.5114 41.0306 80.9882 40.1883C80.4777 39.3333 80.2225 38.3889 80.2225 37.3552V28.2459C80.2225 27.6523 79.7413 27.1711 79.1477 27.1711H78.713C78.1194 27.1711 77.6382 26.6899 77.6382 26.0963V24.2068Z" fill="#083E44"/>
<path d="M64.518 16.4554C64.671 16.028 65.076 15.7428 65.53 15.7428H69.0508C69.5048 15.7428 69.9098 16.028 70.0628 16.4554L79.0371 41.5271C79.2877 42.2272 78.7687 42.9641 78.0251 42.9641H75.9982C75.5457 42.9641 75.1417 42.6807 74.9876 42.2553L72.5338 35.4798C72.3798 35.0543 71.9757 34.7709 71.5232 34.7709H66.2094C65.4642 34.7709 64.9451 34.0311 65.1987 33.3303L65.8756 31.46C66.0296 31.0344 66.4337 30.7509 66.8863 30.7509H69.2898C70.0351 30.7509 70.5542 30.0108 70.3004 29.31L68.3094 23.8133C67.9672 22.8686 66.6314 22.8681 66.2885 23.8126L59.5935 42.256C59.4392 42.6811 59.0354 42.9641 58.5832 42.9641H56.5556C55.812 42.9641 55.2931 42.2272 55.5437 41.5271L64.518 16.4554Z" fill="#083E44"/>
<path d="M39.1728 31.1894C39.0866 31.0242 38.9158 30.9207 38.7295 30.9207L28.5535 30.9207C28.1783 30.9207 27.9368 31.3185 28.1098 31.6513L29.6139 34.5443C29.6999 34.7098 29.8709 34.8137 30.0575 34.8137L40.2389 34.8137C40.6144 34.8137 40.8559 34.4153 40.6822 34.0824L39.1728 31.1894Z" fill="#DE267E"/>
<path d="M25.8486 27.2984C25.9346 27.464 26.1057 27.5679 26.2923 27.5679L36.4571 27.5679C36.8327 27.5679 37.0742 27.1694 36.9004 26.8365L35.1446 23.4735C35.0585 23.3084 34.8877 23.2049 34.7014 23.2049L24.5449 23.2049C24.1698 23.2049 23.9282 23.6026 24.1012 23.9355L25.8486 27.2984Z" fill="#DE267E"/>
<path d="M22.3418 0.215088L22.3984 0.218994C22.5297 0.237113 22.6458 0.317268 22.708 0.436768L22.709 0.438721L32.0117 18.675C32.152 18.9505 31.9514 19.2755 31.6445 19.2756H22.583C22.430 19.2753 22.288 19.1898 22.2168 19.053L21.2588 17.2112C20.649 16.0408 18.9568 16.1059 18.4365 17.3108L9.12598 42.4143C9.02201 42.6946 8.75405 42.8811 8.45508 42.8811H0.935547C0.425889 42.8811 0.0678215 42.3649 0.275391 41.887C3.52608 34.4023 7.63746 24.0519 10.9365 15.5706C12.5858 11.3304 14.0317 7.55815 15.0654 4.84595C15.5823 3.48988 15.9967 2.39875 16.2812 1.64673C16.4234 1.27099 16.533 0.979692 16.6074 0.782471C16.6446 0.683857 16.6734 0.60831 16.6924 0.557861C16.7018 0.532844 16.7091 0.513951 16.7139 0.501221C16.7162 0.494958 16.7175 0.489773 16.7188 0.486572C16.7194 0.484971 16.7204 0.483467 16.7207 0.482666V0.481689L16.7246 0.470947L16.7334 0.453369C16.7645 0.386431 16.813 0.329725 16.8721 0.28833C16.9546 0.230699 17.0491 0.221295 17.082 0.217041L17.0957 0.215088H22.3418Z" fill="#083E44" stroke="#083E44" stroke-width="0.429932"/>
<path d="M20.4265 38.1645C20.0514 38.1645 19.8099 38.5621 19.9828 38.895L21.8006 42.3948C21.8866 42.5604 22.0577 42.6643 22.2443 42.6643L44.3355 42.6643C44.711 42.6643 44.9525 42.2659 44.7788 41.933L42.9526 38.4332C42.8664 38.268 42.6956 38.1645 42.5093 38.1645L20.4265 38.1645Z" fill="#DE267E"/>
</svg>
