<svg width="64" height="64" viewBox="0 0 64 64" fill="none" xmlns="http://www.w3.org/2000/svg">
  <rect width="64" height="64" rx="12" fill="white"/>
  <g transform="scale(4)">
    <path d="M13.1365 10.9994C13.1099 10.9486 13.0573 10.9167 13 10.9167L9.82961 10.9167C9.71411 10.9167 9.63976 11.0391 9.69303 11.1416L10.1628 12.0452C10.1893 12.0961 10.2419 12.1281 10.2994 12.1281L13.4714 12.1281C13.587 12.1281 13.6613 12.0055 13.6079 11.903L13.1365 10.9994Z" fill="#DE267E"/>
    <path d="M8.99108 9.79039C9.01757 9.84137 9.07023 9.87335 9.12767 9.87335L12.2946 9.87335C12.4102 9.87335 12.4845 9.75066 12.431 9.64818L11.8829 8.59836C11.8564 8.54754 11.8038 8.51567 11.7465 8.51567L8.58218 8.51567C8.46671 8.51567 8.39235 8.6381 8.44559 8.74058L8.99108 9.79039Z" fill="#DE267E"/>
    <path d="M7.8252 1.36206C7.86064 1.36208 7.89429 1.37709 7.91797 1.4021L7.93848 1.43042V1.4314L10.8027 7.04565C10.8457 7.13043 10.7839 7.23022 10.6895 7.23022H7.89941C7.85244 7.23 7.80896 7.20388 7.78711 7.16187L7.49219 6.59448C7.3039 6.23356 6.78082 6.25518 6.62207 6.62866L3.75684 14.3542C3.72478 14.4403 3.6426 14.4977 3.55078 14.4978H1.23535C1.07859 14.4978 0.968675 14.3392 1.03223 14.1921C2.033 11.8879 3.29878 8.70073 4.31445 6.0896C4.82221 4.78424 5.26769 3.62281 5.58594 2.78784C5.74496 2.37062 5.87237 2.03494 5.95996 1.80347C6.00376 1.68771 6.03764 1.59758 6.06055 1.53687C6.07198 1.50655 6.08009 1.48304 6.08594 1.46753C6.08883 1.45985 6.09131 1.45385 6.09277 1.44995C6.09344 1.44818 6.09437 1.44698 6.09473 1.44604V1.44409L6.09766 1.43823L6.09863 1.4353H6.09961C6.10921 1.41489 6.12352 1.39716 6.1416 1.38452L6.17969 1.36792C6.19125 1.36484 6.2009 1.3637 6.20605 1.36304L6.21484 1.36206H7.8252Z" fill="#083E44" stroke="#083E44" stroke-width="0.13236"/>
    <path d="M7.30047 13.1708C7.185 13.1708 7.11064 13.2932 7.16386 13.3957L7.73126 14.4881C7.75775 14.5391 7.81042 14.571 7.86787 14.571L14.746 14.571C14.8616 14.571 14.936 14.4484 14.8825 14.3459L14.3125 13.2535C14.286 13.2027 14.2334 13.1708 14.176 13.1708L7.30047 13.1708Z" fill="#DE267E"/>
  </g>
</svg>
