<svg width="201" height="55" viewBox="0 0 201 55" fill="none" xmlns="http://www.w3.org/2000/svg">
<path d="M43.1452 34.2853C42.9599 33.9302 42.5927 33.7076 42.1922 33.7076L32.2783 33.7076C31.4718 33.7076 30.9526 34.5627 31.3246 35.2782L32.4159 37.3774C32.6009 37.7332 32.9686 37.9564 33.3696 37.9564L43.2874 37.9564C44.0946 37.9564 44.6137 37.1 44.2404 36.3844L43.1452 34.2853Z" fill="#DE267E"/>
<path d="M28.3065 29.4691C28.4914 29.825 28.8591 30.0483 29.2602 30.0483L39.1597 30.0483C39.967 30.0483 40.4861 29.1917 40.1125 28.4761L38.7488 25.864C38.5635 25.5091 38.1963 25.2866 37.796 25.2866L27.903 25.2866C27.0967 25.2866 26.5775 26.1415 26.9492 26.857L28.3065 29.4691Z" fill="#DE267E"/>
<path d="M24.6252 0.215088C24.7659 0.215167 24.8967 0.283163 24.9768 0.395752L25.0081 0.446533V0.448486L35.1614 20.3518C35.3077 20.6394 35.098 20.9778 34.7776 20.9778H24.8879C24.7482 20.9775 24.6176 20.9097 24.5374 20.7971L24.5061 20.7463L23.4612 18.7366C22.7866 17.4412 20.9106 17.5162 20.3411 18.8557L20.3391 18.8586L10.2727 41.6194L10.0774 42.1252L10.0784 42.1262C9.90588 42.6005 9.77752 43.038 9.70435 43.4338C9.6079 43.9563 9.59522 44.4701 9.76196 44.925C10.1368 45.9468 11.1915 46.2297 12.3801 46.2297C12.8583 46.2297 13.2167 46.2293 13.4973 46.2463C13.52 46.2477 13.542 46.2497 13.5627 46.2512C13.8305 46.2712 14.0402 46.489 14.0403 46.7629V54.05C14.04 54.3157 13.8383 54.531 13.5764 54.554C13.5472 54.5565 13.516 54.5588 13.4827 54.5608H13.4817C13.2028 54.5776 12.8497 54.5784 12.3801 54.5784C6.54356 54.5783 3.06619 52.5256 1.41724 49.6682C-0.24762 46.7828 -0.161245 42.8874 1.54126 38.9973L18.5129 0.482666L18.5178 0.4729L18.5217 0.464111H18.5227C18.5552 0.39409 18.6053 0.334508 18.6672 0.29126L18.7327 0.255127C18.7979 0.227004 18.8595 0.220581 18.887 0.217041L18.9006 0.215088H24.6252Z" fill="#083E44" stroke="#083E44" stroke-width="0.429932"/>
<path d="M27.7554 41.6137C26.9492 41.6137 26.43 42.4684 26.8016 43.1839L28.2359 45.9454C28.4208 46.3014 28.7886 46.5248 29.1898 46.5248L47.7583 46.5248C48.5654 46.5248 49.0846 45.6683 48.7112 44.9527L47.2702 42.1913C47.085 41.8363 46.7178 41.6137 46.3173 41.6137L27.7554 41.6137Z" fill="#DE267E"/>
<path d="M169.394 29.3433C169.394 28.1254 169.828 27.0824 170.695 26.2145C171.563 25.3465 172.613 24.9125 173.845 24.9125H180.481C181.871 24.9125 183.067 25.2493 184.069 25.9228C184.557 26.2509 185.22 26.2464 185.707 25.9165C186.696 25.2472 187.894 24.9125 189.301 24.9125H192.576C194.018 24.9125 195.334 25.2695 196.524 25.9835C197.714 26.6835 198.659 27.6284 199.359 28.8184C200.073 29.9943 200.43 31.3032 200.43 32.7452V45.5927C200.43 46.1863 199.949 46.6675 199.355 46.6675H197.095C196.502 46.6675 196.02 46.1863 196.02 45.5927V32.8082C196.02 31.8422 195.684 31.0233 195.012 30.3513C194.34 29.6653 193.528 29.3223 192.576 29.3223H189.301C188.685 29.3223 188.16 29.5183 187.726 29.9103C187.292 30.2883 187.075 30.7503 187.075 31.2962V45.5927C187.075 46.1863 186.594 46.6675 186 46.6675H183.719C183.125 46.6675 182.644 46.1863 182.644 45.5927V31.2962C182.644 30.7503 182.434 30.2883 182.014 29.9103C181.594 29.5183 181.083 29.3223 180.481 29.3223H174.899C174.306 29.3223 173.824 29.8036 173.824 30.3972V45.5927C173.824 46.1863 173.343 46.6675 172.75 46.6675H170.468C169.875 46.6675 169.394 46.1863 169.394 45.5927V29.3433Z" fill="#083E44"/>
<path d="M147.547 25.9874C147.547 25.3938 148.028 24.9125 148.621 24.9125H150.903C151.496 24.9125 151.977 25.3938 151.977 25.9874V38.7509C151.977 39.7309 152.313 40.5638 152.985 41.2498C153.657 41.9358 154.462 42.2787 155.4 42.2787H162.032C162.626 42.2787 163.107 41.7975 163.107 41.2039V25.9874C163.107 25.3938 163.588 24.9125 164.182 24.9125H166.463C167.056 24.9125 167.538 25.3938 167.538 25.9874V42.2577C167.538 43.4757 167.104 44.5186 166.236 45.3866C165.368 46.2406 164.311 46.6675 163.065 46.6675H155.4C153.958 46.6675 152.642 46.3176 151.452 45.6176C150.263 44.9036 149.311 43.9517 148.597 42.7617C147.897 41.5718 147.547 40.2558 147.547 38.8139V25.9874Z" fill="#083E44"/>
<path d="M128.628 24.9125C129.077 24.9125 129.478 25.1906 129.635 25.6103L134.027 37.3329C134.374 38.2596 135.683 38.2644 136.037 37.3403L140.533 25.6029C140.692 25.1871 141.091 24.9125 141.536 24.9125H144.123C144.878 24.9125 145.398 25.67 145.126 26.3742L134.406 54.1691C134.246 54.5837 133.847 54.8572 133.403 54.8572H130.847C130.095 54.8572 129.575 54.1041 129.842 53.4008L132.525 46.3354C132.619 46.0894 132.619 45.8177 132.525 45.5718L125.224 26.3694C124.956 25.666 125.476 24.9125 126.228 24.9125H128.628Z" fill="#083E44"/>
<path d="M111.7 31.0023C111.7 29.8823 111.98 28.8604 112.54 27.9364C113.114 27.0124 113.87 26.2775 114.808 25.7315C115.76 25.1855 116.81 24.9125 117.958 24.9125H121.734C122.327 24.9125 122.808 25.3938 122.808 25.9874V28.2475C122.808 28.8411 122.327 29.3223 121.734 29.3223H117.958C117.454 29.3223 117.02 29.4973 116.656 29.8473C116.306 30.1833 116.131 30.5963 116.131 31.0863V45.5927C116.131 46.1863 115.65 46.6675 115.056 46.6675H112.775C112.181 46.6675 111.7 46.1863 111.7 45.5927V31.0023Z" fill="#083E44"/>
<path d="M95.8765 25.9873C95.8765 25.3937 96.3577 24.9125 96.9513 24.9125H97.6365C98.2301 24.9125 98.7113 24.4313 98.7113 23.8377V17.8817C98.7113 17.2881 99.1926 16.8069 99.7862 16.8069H102.067C102.661 16.8069 103.142 17.2881 103.142 17.8817V23.8377C103.142 24.4313 103.623 24.9125 104.217 24.9125H108.766C109.36 24.9125 109.841 25.3937 109.841 25.9873V28.2685C109.841 28.8621 109.36 29.3433 108.766 29.3433H104.217C103.623 29.3433 103.142 29.8245 103.142 30.4181V40.4938C103.142 40.9698 103.324 41.3828 103.688 41.7327C104.066 42.0687 104.514 42.2367 105.032 42.2367H108.766C109.36 42.2367 109.841 42.7179 109.841 43.3115V45.5927C109.841 46.1863 109.36 46.6675 108.766 46.6675H104.969C103.821 46.6675 102.771 46.3945 101.819 45.8486C100.881 45.2886 100.125 44.5466 99.5513 43.6227C98.9913 42.6847 98.7113 41.6487 98.7113 40.5148V30.4181C98.7113 29.8245 98.2301 29.3433 97.6365 29.3433H96.9513C96.3577 29.3433 95.8765 28.8621 95.8765 28.2685V25.9873Z" fill="#083E44"/>
<path d="M81.5086 17.5195C81.6616 17.0921 82.0666 16.8069 82.5206 16.8069H86.5296C86.9835 16.8069 87.3885 17.0921 87.5415 17.5195L97.4606 45.2305C97.7112 45.9306 97.1922 46.6675 96.4486 46.6675H94.0041C93.5516 46.6675 93.1475 46.3841 92.9935 45.9587L90.252 38.3888C90.098 37.9633 89.6939 37.6799 89.2414 37.6799H83.1907C82.4456 37.6799 81.9265 36.94 82.1801 36.2393L82.998 33.9792C83.152 33.5536 83.5561 33.2701 84.0087 33.2701H86.8669C87.6122 33.2701 88.1313 32.53 87.8775 31.8293L85.545 25.3896C85.2029 24.4449 83.867 24.4445 83.5241 25.3889L76.057 45.9594C75.9027 46.3845 75.4989 46.6675 75.0467 46.6675H72.6015C71.8579 46.6675 71.339 45.9306 71.5896 45.2305L81.5086 17.5195Z" fill="#083E44"/>
</svg>
